<svg width="20" height="19" viewBox="0 0 20 19" fill="none" xmlns="http://www.w3.org/2000/svg">
<path d="M9.04894 1.26348C9.3483 0.342167 10.6517 0.342166 10.9511 1.26348L12.4697 5.93724C12.6035 6.34926 12.9875 6.62822 13.4207 6.62822H18.335C19.3037 6.62822 19.7065 7.86784 18.9228 8.43724L14.947 11.3258C14.5966 11.5804 14.4499 12.0318 14.5838 12.4438L16.1024 17.1176C16.4017 18.0389 15.3472 18.805 14.5635 18.2356L10.5878 15.3471C10.2373 15.0924 9.7627 15.0924 9.41221 15.3471L5.43648 18.2356C4.65276 18.805 3.59828 18.0389 3.89763 17.1176L5.41623 12.4438C5.55011 12.0318 5.40345 11.5804 5.05296 11.3258L1.07722 8.43724C0.293507 7.86784 0.696283 6.62822 1.66501 6.62822H6.57929C7.01252 6.62822 7.39647 6.34926 7.53035 5.93724L9.04894 1.26348Z" fill="#D9D9D9"/>
</svg>
